/* XPM */
static char * normal_cursor_xpm[] = {
"24 24 3 1",
" 	c None",
".	c black",
"X	c white",
"      ..                ",
"      .X.               ",
"      .XX.              ",
"      .XXX.             ",
"      .XXXX.            ",
"      .XXXXX.           ",
"      .XXXXXX.          ",
"      .XXXXXXX.         ",
"      .XXXXXXXX.        ",
"      .XXXXXXXXX.       ",
"      .XXXXXXXXXX.      ",
"      .XXXXXXXXXXX.     ",
"      .XXXXXXXXXXXX.    ",
"      .XXXXXXXXXXXXX.   ",
"      .XXXXXXXX.......  ",
"      .XXXX.XXX.        ",
"      .XX...XXX.        ",
"      .X.  .XXX.        ",
"      ..    .XXX.       ",
"            .XXX.       ",
"            .XXX.       ",
"             .XXX.      ",
"             .XXX.      ",
"              ...       "};
