<?xml version="1.0" encoding="utf-8"?>
<!-- Generator: Adobe Illustrator 16.0.4, SVG Export Plug-In . SVG Version: 6.00 Build 0)  -->
<!DOCTYPE svg PUBLIC "-//W3C//DTD SVG 1.1//EN" "http://www.w3.org/Graphics/SVG/1.1/DTD/svg11.dtd">
<svg version="1.1" id="resea" xmlns="http://www.w3.org/2000/svg" xmlns:xlink="http://www.w3.org/1999/xlink" x="0px" y="0px"
	width="321px" height="459.523px" viewBox="0 0 321 459.523" enable-background="new 0 0 321 459.523" xml:space="preserve">
<path fill="#8ECFE8" d="M302.309,427.39c0,7.205-5.295,13.047-11.824,13.047H33.179c-6.531,0-11.825-5.842-11.825-13.047V126.696
	c0-7.205,5.294-13.045,11.825-13.045h257.305c6.529,0,11.824,5.841,11.824,13.045V427.39z"/>
<path fill="#E78593" d="M-50.667,384.187"/>
<g>
	<g>
		<path fill="#4CB234" d="M289.271,320.978c-9.146-7.082-17.152-15.953-24.58-24.748c-18.728-22.174-33.457-47.773-43.769-74.875
			c-15.099-39.688-19.89-82.475-16.396-124.671c2.305-27.829,8.877-54.927,16.33-81.756c0.352-1.261,1.553-3.238,0.117-1.496
			c-1.01,0.13-2.021,0.261-3.029,0.391c0.002,0,0.002,0.001,0.002,0.001c-0.412-0.719-0.822-1.439-1.236-2.158
			c-0.096-1.285-0.182,0.498-0.346,1.13c-0.408,1.591-0.838,3.178-1.27,4.764c-1.582,5.849-3.223,11.683-4.885,17.51
			c-5.764,20.206-11.846,40.321-18.158,60.361c-18.082,57.391-37.984,114.377-61.819,169.654
			c-11.591,26.883-24.164,53.438-38.91,78.752c-11.4,19.568-24.221,39.262-41.151,54.541c-6.924,6.25-14.947,11.801-24.071,14.184
			c-3.117,0.814-1.793,5.639,1.329,4.822c17.175-4.486,30.739-18.518,41.606-31.805c16.153-19.75,28.938-42.199,40.594-64.812
			c28.167-54.645,49.896-112.667,69.768-170.753c14.264-41.702,27.465-83.82,39.205-126.306c0.689-2.507,5.004-12.153,1.865-14.202
			c-0.867-0.567-2.35-0.436-3.027,0.391c-1.508,1.831-1.822,5.204-2.416,7.397c-2.287,8.438-4.549,16.891-6.621,25.385
			c-11.156,45.721-13.537,93.641-3.988,139.857c10.646,51.547,37.104,102.269,76.443,137.812c1.584,1.432,3.188,2.857,4.877,4.166
			C288.249,326.46,291.818,322.95,289.271,320.978L289.271,320.978z"/>
	</g>
</g>
<ellipse fill="#E78593" cx="52.128" cy="405.187" rx="48.506" ry="49.178"/>
<ellipse fill="#E78593" cx="261.261" cy="311.019" rx="53.868" ry="52.678"/>
</svg>